<svg id="visual" viewBox="0 0 960 540" width="960" height="540" xmlns="http://www.w3.org/2000/svg" xmlns:xlink="http://www.w3.org/1999/xlink" version="1.1"><rect x="0" y="0" width="960" height="540" fill="#001220"></rect><defs><linearGradient id="grad1_0" x1="43.8%" y1="0%" x2="100%" y2="100%"><stop offset="14.444444444444446%" stop-color="#001220" stop-opacity="1"></stop><stop offset="85.55555555555554%" stop-color="#001220" stop-opacity="1"></stop></linearGradient></defs><defs><linearGradient id="grad2_0" x1="0%" y1="0%" x2="56.3%" y2="100%"><stop offset="14.444444444444446%" stop-color="#001220" stop-opacity="1"></stop><stop offset="85.55555555555554%" stop-color="#001220" stop-opacity="1"></stop></linearGradient></defs><g transform="translate(960, 0)"><path d="M0 486C-36 444.4 -72.1 402.9 -100.2 373.8C-128.3 344.7 -148.4 328.1 -191 330.8C-233.6 333.5 -298.6 355.6 -343.7 343.7C-388.7 331.7 -413.9 285.9 -415.7 240C-417.5 194.1 -395.9 148.2 -403.8 108.2C-411.6 68.2 -448.8 34.1 -486 0L0 0Z" fill="#e81cff"></path></g><g transform="translate(0, 540)"><path d="M0 -486C36.4 -452.2 72.8 -418.3 107.4 -400.9C142 -383.4 174.9 -382.3 219.5 -380.2C264.1 -378.1 320.6 -375.1 343.7 -343.7C366.7 -312.3 356.5 -252.5 365.5 -211C374.4 -169.5 402.7 -146.3 426 -114.1C449.3 -82 467.6 -41 486 0L0 0Z" fill="#e81cff"></path></g></svg>