<svg id="visual" viewBox="0 0 1920 1080" width="1920" height="1080" xmlns="http://www.w3.org/2000/svg" xmlns:xlink="http://www.w3.org/1999/xlink" version="1.1"><rect x="0" y="0" width="1920" height="1080" fill="#140021"></rect><path d="M0 588L107 588L107 643L213 643L213 568L320 568L320 581L427 581L427 634L533 634L533 626L640 626L640 655L747 655L747 548L853 548L853 599L960 599L960 560L1067 560L1067 660L1173 660L1173 668L1280 668L1280 651L1387 651L1387 572L1493 572L1493 562L1600 562L1600 617L1707 617L1707 648L1813 648L1813 664L1920 664L1920 650L1920 1081L1920 1081L1813 1081L1813 1081L1707 1081L1707 1081L1600 1081L1600 1081L1493 1081L1493 1081L1387 1081L1387 1081L1280 1081L1280 1081L1173 1081L1173 1081L1067 1081L1067 1081L960 1081L960 1081L853 1081L853 1081L747 1081L747 1081L640 1081L640 1081L533 1081L533 1081L427 1081L427 1081L320 1081L320 1081L213 1081L213 1081L107 1081L107 1081L0 1081Z" fill="#e81cff"></path><path d="M0 709L107 709L107 802L213 802L213 715L320 715L320 731L427 731L427 708L533 708L533 830L640 830L640 725L747 725L747 753L853 753L853 763L960 763L960 759L1067 759L1067 699L1173 699L1173 699L1280 699L1280 750L1387 750L1387 728L1493 728L1493 778L1600 778L1600 817L1707 817L1707 782L1813 782L1813 825L1920 825L1920 761L1920 1081L1920 1081L1813 1081L1813 1081L1707 1081L1707 1081L1600 1081L1600 1081L1493 1081L1493 1081L1387 1081L1387 1081L1280 1081L1280 1081L1173 1081L1173 1081L1067 1081L1067 1081L960 1081L960 1081L853 1081L853 1081L747 1081L747 1081L640 1081L640 1081L533 1081L533 1081L427 1081L427 1081L320 1081L320 1081L213 1081L213 1081L107 1081L107 1081L0 1081Z" fill="#8514a9"></path><path d="M0 863L107 863L107 977L213 977L213 931L320 931L320 960L427 960L427 886L533 886L533 979L640 979L640 979L747 979L747 910L853 910L853 906L960 906L960 917L1067 917L1067 916L1173 916L1173 899L1280 899L1280 865L1387 865L1387 976L1493 976L1493 945L1600 945L1600 906L1707 906L1707 946L1813 946L1813 968L1920 968L1920 859L1920 1081L1920 1081L1813 1081L1813 1081L1707 1081L1707 1081L1600 1081L1600 1081L1493 1081L1493 1081L1387 1081L1387 1081L1280 1081L1280 1081L1173 1081L1173 1081L1067 1081L1067 1081L960 1081L960 1081L853 1081L853 1081L747 1081L747 1081L640 1081L640 1081L533 1081L533 1081L427 1081L427 1081L320 1081L320 1081L213 1081L213 1081L107 1081L107 1081L0 1081Z" fill="#340355"></path></svg>