<svg id="visual" viewBox="0 0 960 540" width="960" height="540" xmlns="http://www.w3.org/2000/svg" xmlns:xlink="http://www.w3.org/1999/xlink" version="1.1"><rect x="0" y="0" width="960" height="540" fill="#002233"></rect><path d="M0 404L11.5 412.2C23 420.3 46 436.7 68.8 427.8C91.7 419 114.3 385 137.2 373.5C160 362 183 373 205.8 390.5C228.7 408 251.3 432 274.2 441.3C297 450.7 320 445.3 342.8 444.3C365.7 443.3 388.3 446.7 411.2 445.5C434 444.3 457 438.7 480 423.7C503 408.7 526 384.3 548.8 379.2C571.7 374 594.3 388 617.2 388.2C640 388.3 663 374.7 685.8 364.7C708.7 354.7 731.3 348.3 754.2 356.2C777 364 800 386 822.8 398.8C845.7 411.7 868.3 415.3 891.2 414.2C914 413 937 407 948.5 404L960 401L960 541L948.5 541C937 541 914 541 891.2 541C868.3 541 845.7 541 822.8 541C800 541 777 541 754.2 541C731.3 541 708.7 541 685.8 541C663 541 640 541 617.2 541C594.3 541 571.7 541 548.8 541C526 541 503 541 480 541C457 541 434 541 411.2 541C388.3 541 365.7 541 342.8 541C320 541 297 541 274.2 541C251.3 541 228.7 541 205.8 541C183 541 160 541 137.2 541C114.3 541 91.7 541 68.8 541C46 541 23 541 11.5 541L0 541Z" fill="#e81cff" stroke-linecap="round" stroke-linejoin="miter"></path></svg>